<?xml version="1.0" standalone="no"?>
<!DOCTYPE svg PUBLIC "-//W3C//DTD SVG 20010904//EN"
 "http://www.w3.org/TR/2001/REC-SVG-20010904/DTD/svg10.dtd">
<svg version="1.0" xmlns="http://www.w3.org/2000/svg"
 width="84.000000pt" height="84.000000pt" viewBox="0 0 84.000000 84.000000"
 preserveAspectRatio="xMidYMid meet">
<metadata>
Created by potrace 1.14, written by Peter Selinger 2001-2017
</metadata>
<g transform="translate(0.000000,84.000000) scale(0.100000,-0.100000)"
fill="#000000" stroke="none">
<path d="M166 704 c-24 -23 -24 -535 0 -558 11 -12 35 -16 89 -16 87 0 105 12
105 71 0 21 3 39 7 39 4 0 30 -25 58 -55 l51 -55 86 0 c65 0 90 4 102 16 36
35 18 70 -108 214 -36 41 -66 79 -66 84 0 6 41 51 90 102 66 67 90 98 90 117
0 46 -22 57 -121 57 l-90 0 -49 -46 -50 -47 0 31 c0 49 -21 62 -105 62 -54 0
-78 -4 -89 -16z m144 -279 l0 -245 -55 0 -55 0 0 245 0 245 55 0 55 0 0 -245z
m207 137 c-59 -59 -107 -111 -107 -115 0 -7 111 -140 204 -245 l19 -22 -64 0
-64 0 -87 102 -88 103 0 59 0 58 76 84 76 84 72 0 71 0 -108 -108z"/>
</g>
</svg>
